<?xml version="1.0" encoding="UTF-8" standalone="no"?>
<svg
   xml:space="preserve"
   viewBox="0 0 150 150"
   version="1.1"
   id="svg496"
   sodipodi:docname="HelixCoreLogo.svg"
   width="150"
   height="150"
   inkscape:version="1.2 (dc2aedaf03, 2022-05-15)"
   xmlns:inkscape="http://www.inkscape.org/namespaces/inkscape"
   xmlns:sodipodi="http://sodipodi.sourceforge.net/DTD/sodipodi-0.dtd"
   xmlns="http://www.w3.org/2000/svg"
   xmlns:svg="http://www.w3.org/2000/svg"><defs
     id="defs500" /><sodipodi:namedview
     id="namedview498"
     pagecolor="#505050"
     bordercolor="#eeeeee"
     borderopacity="1"
     inkscape:showpageshadow="0"
     inkscape:pageopacity="0"
     inkscape:pagecheckerboard="0"
     inkscape:deskcolor="#505050"
     showgrid="false"
     inkscape:zoom="2.5591103"
     inkscape:cx="134.42172"
     inkscape:cy="41.811406"
     inkscape:window-width="1920"
     inkscape:window-height="1017"
     inkscape:window-x="1912"
     inkscape:window-y="-8"
     inkscape:window-maximized="1"
     inkscape:current-layer="svg496" /><path
     fill="#f1f1f2"
     d="m 12.826963,37.269673 c -0.984268,0.656152 -1.640448,1.968518 -1.640448,2.952806 v 69.555051 c 0,0.98429 0.65618,2.62473 1.640448,2.95283 l 60.368525,34.77751 c 0.984284,0.65617 2.624742,0.65617 3.609026,0 l 60.368526,-34.77751 c 0.98427,-0.6562 1.64045,-1.96854 1.64045,-2.95283 V 40.550572 c 0,-0.984289 -0.65618,-2.624747 -1.64045,-2.952822 L 76.804514,2.492136 c -0.984284,-0.6561796 -2.624742,-0.6561796 -3.609026,0 z"
     id="path482"
     style="stroke-width:3.28077" /><path
     fill="#00aeef"
     d="M 87.303352,80.249432 H 64.008976 c -2.624691,0 -4.921356,-2.29661 -4.921356,-4.921341 0,-2.62473 2.296665,-4.92134 4.921356,-4.92134 h 23.294376 c 2.624747,0 4.921362,2.29661 4.921362,4.92134 0,2.624731 -2.296615,4.921341 -4.921362,4.921341 z"
     id="path484"
     style="stroke-width:3.28077" /><g
     fill="#00aeef"
     id="g490"
     transform="matrix(3.2809002,0,0,3.2809002,7.905616,1.1797765)"><path
       d="m 30.9,22.9 c 0,-0.8 0.6,-5.1 -6.6,-9.1 -0.5,0.6 -1.2,1.4 -2.2,2.2 0.1,0.1 1.3,0.8 1.4,0.9 4.5,2.3 4.4,5.5 4.4,5.8 V 23 c 0,0.3 -0.2,2.7 -4.4,5.1 -5.4,3.2 -6.4,5.9 -6.5,6.4 l 3,0.8 v 0.1 c 0,0 0.2,-0.6 1.2,-1.6 l 4.9,2.8 c 0.2,0.1 0.5,0.2 0.8,0.2 0.5,0 1.1,-0.3 1.3,-0.8 0.4,-0.7 0.2,-1.7 -0.6,-2.1 l -3.9,-2.2 c 0.4,-0.3 0.8,-0.6 1.3,-0.8 5.6,-3.4 5.9,-7.1 5.9,-8 z"
       id="path486" /><path
       d="m 10.4,22.3 c 0,0.8 -0.6,5.1 6.6,9.1 0.5,-0.6 1.2,-1.4 2.2,-2.2 -0.1,-0.1 -1.3,-0.8 -1.4,-0.9 -4.5,-2.3 -4.4,-5.5 -4.4,-5.8 v -0.3 c 0,-0.3 0.2,-2.7 4.4,-5.1 5.4,-3.2 6.4,-5.9 6.5,-6.4 l -3,-0.8 V 9.8 c 0,0 -0.2,0.6 -1.2,1.6 L 15.2,8.6 C 15,8.5 14.7,8.4 14.4,8.4 c -0.5,0 -1.1,0.3 -1.3,0.8 -0.4,0.7 -0.2,1.7 0.6,2.1 l 3.9,2.2 c -0.4,0.3 -0.8,0.6 -1.3,0.8 -5.7,3.4 -6,7.1 -5.9,8 z"
       id="path488" /></g></svg>
