<?xml version="1.0" encoding="UTF-8" standalone="no"?>
<svg
   id="SvgjsSvg1033"
   version="1.1"
   width="150"
   height="150"
   viewBox="0 0 150 150"
   sodipodi:docname="PackageIcon.svg"
   inkscape:version="1.2 (dc2aedaf03, 2022-05-15)"
   inkscape:export-filename="PACKAGE_ICON_256.png"
   inkscape:export-xdpi="819.20001"
   inkscape:export-ydpi="819.20001"
   xmlns:inkscape="http://www.inkscape.org/namespaces/inkscape"
   xmlns:sodipodi="http://sodipodi.sourceforge.net/DTD/sodipodi-0.dtd"
   xmlns="http://www.w3.org/2000/svg"
   xmlns:svg="http://www.w3.org/2000/svg"
   xmlns:rdf="http://www.w3.org/1999/02/22-rdf-syntax-ns#"
   xmlns:cc="http://creativecommons.org/ns#"
   xmlns:dc="http://purl.org/dc/elements/1.1/">
  <sodipodi:namedview
     id="namedview32"
     pagecolor="#505050"
     bordercolor="#eeeeee"
     borderopacity="1"
     inkscape:showpageshadow="0"
     inkscape:pageopacity="0"
     inkscape:pagecheckerboard="0"
     inkscape:deskcolor="#505050"
     showgrid="false"
     inkscape:zoom="3.7999561"
     inkscape:cx="33.421438"
     inkscape:cy="80.264084"
     inkscape:window-width="1920"
     inkscape:window-height="1017"
     inkscape:window-x="1912"
     inkscape:window-y="-8"
     inkscape:window-maximized="1"
     inkscape:current-layer="SvgjsSvg1033" />
  <title
     id="title18">Fill 1</title>
  <desc
     id="desc20">Created with Avocode.</desc>
  <defs
     id="SvgjsDefs1034" />
  <path
     id="SvgjsPath1039"
     d="m 24.759222,55.26254 c 0.995584,-2.588519 2.140506,-5.077481 3.484546,-7.417105 -1.294261,-1.194701 -4.52991,-3.73344 -4.330792,-3.932557 C 40.78813,23.702515 62.790544,17.62945 82.254219,21.163776 c 3.982336,0.54757 7.964675,1.493376 11.897232,2.936973 27.876369,10.354076 41.963889,41.067854 31.510249,68.64554 -1.04536,2.737858 -2.33962,5.376156 -3.73343,7.815331 1.54314,1.34404 4.92813,3.83301 4.72903,4.03213 -18.717,22.15175 -43.656393,27.27899 -64.414329,21.10639 -1.991167,-0.49781 -3.982336,-1.09514 -5.973504,-1.79206 C 28.442884,113.554 14.305586,82.840226 24.759222,55.26254 Z M 119.83754,7.9722825 c -3.53433,3.3849865 -7.76557,7.4668835 -9.85629,9.3087135 -3.28544,-1.84183 -6.81975,-3.534324 -10.503414,-4.878364 C 67.818246,0.6547375 34.466169,13.945788 16.097638,38.68606 6.4902482,52.873136 0.81541775,70.345642 2.2092355,88.315939 c 0,0 0.049776,33.800101 31.2613495,53.711781 2.538739,-3.48456 5.774388,-7.96469 7.914895,-10.85188 3.484546,1.99117 7.168207,3.78324 11.050987,5.22683 35.841037,13.29105 75.564863,-3.68366 88.557223,-37.881994 0,0 9.50785,-20.857489 6.37176,-43.656371 0,0 -2.4392,-30.763555 -27.52791,-46.8920225 z"
     fill="#404040"
     fill-opacity="1"
     style="stroke-width:4.97792"
     inkscape:label="path1039" />
  <metadata
     id="metadata261">
    <rdf:RDF>
      <cc:Work
         rdf:about="">
        <dc:title>Fill 1</dc:title>
      </cc:Work>
    </rdf:RDF>
  </metadata>
</svg>
